<?xml version="1.0" encoding="UTF-8"?>
<svg xmlns="http://www.w3.org/2000/svg" viewBox="0 0 300 67.987" width="300" height="67.987"><path fill="#fff" d="M0 0h300v67.987H0z"/><path fill="#8bc833" d="M39.6 35.887c7.5 5.55 34.575 13.2 38.85 8.4 3.9-4.5-11.1-30.075-18.675-35.7a16.995 16.995 0 10-20.25 27.3z"/><path fill="#027bff" d="M34.875 37.237a17.625 17.625 0 01-3.6-23.7l.6-.675a20.25 20.25 0 00-17.1 8.25 21.3 21.3 0 004.275 28.5c15.375 14.25 48.375 16.875 52.125 13.65 1.95-1.725 0-7.5-3.75-14.4-7.5 1.8-19.5.075-32.55-11.625z"/><path fill="#00334f" d="M145.95 23.137h7.125l5.55 15.15 5.625-14.625H171l-10.35 27.45s-3.375 6.3-11.85 1.875l1.725-4.2s8.1 4.2 4.5-3.75c-3.6-7.95-9.075-21.9-9.075-21.9zm93.45 0h7.125l5.625 15.15 5.55-14.625h6.75l-10.275 27.45s-3.375 6.3-11.85 1.875l1.65-4.2s8.175 4.2 4.575-3.75c-3.6-7.95-9.15-21.9-9.15-21.9zm-62.775-7.8v32.025h6.075V26.737l9.3 13.2 9.15-14.1v21.375h5.625v-31.65h-6.75l-8.175 13.725-9.825-13.95zm-45.075 7.5a43.05 43.05 0 00-9 2.025l2.55 4.725s11.325-4.725 11.7 3.375a59.025 59.025 0 00-8.475-.675A8.625 8.625 0 00120 40.312c0 5.55 6.075 7.125 9 7.125 2.85 0 7.5-1.5 8.475-3.75v3.525h4.725V30.787s.15-7.95-10.65-7.95zm0 21.3a5.25 5.25 0 01-4.95-4.05 5.775 5.775 0 015.7-4.5 3.975 3.975 0 014.275 3.3 5.775 5.775 0 01-5.025 5.25zm93.3-21.3a43.05 43.05 0 00-9 2.025l2.55 4.725s11.4-4.725 11.7 3.375a59.025 59.025 0 00-8.475-.675 8.625 8.625 0 00-8.25 8.025c0 5.55 6.075 7.125 9 7.125 2.85 0 7.425-1.5 8.4-3.75v3.525h4.8V30.787s.15-7.95-10.725-7.95zm0 21.3a5.25 5.25 0 01-4.875-4.05 5.775 5.775 0 015.7-4.5 4.125 4.125 0 014.275 3.45 5.625 5.625 0 01-5.1 5.1zm53.025-21.3a43.05 43.05 0 00-9 2.025l2.625 4.725s11.325-4.725 11.7 3.375a59.025 59.025 0 00-8.475-.675 8.625 8.625 0 00-8.325 8.025c0 5.55 6.075 7.125 9 7.125 2.85 0 7.425-1.5 8.475-3.75v3.525h4.725V30.787s.15-7.95-10.725-7.95zm0 21.3a5.25 5.25 0 01-4.875-4.05 5.775 5.775 0 015.7-4.5 3.975 3.975 0 014.2 3.45 5.55 5.55 0 01-4.95 5.1zM106.5 15.037c-3 0-13.275.675-13.275.675v31.35h6.45v-9.975h6.75s11.55-1.2 11.55-10.875a10.95 10.95 0 00-11.55-11.25zm-1.35 17.175h-6V21.487l6.525-.375c1.05 0 6.525.3 6.525 5.25s-7.05 5.85-7.05 5.85z"/></svg>